<svg width="115" height="40" viewBox="0 0 115 40" fill="none" xmlns="http://www.w3.org/2000/svg">
<path d="M28.6635 3.84778C28.9985 3.64707 29.4243 3.88689 29.4221 4.27509L29.3841 11.2354C29.3821 11.6163 28.968 11.8553 28.635 11.6678L22.6668 8.30619C22.3338 8.11865 22.3286 7.64348 22.6572 7.44655L28.6635 3.84778Z" fill="#0A54FF"/>
<path d="M19.8544 9.17725C20.1894 8.97654 20.6152 9.21636 20.6131 9.60455L20.5751 16.5649C20.573 16.9458 20.1589 17.1848 19.826 16.9972L13.8577 13.6357C13.5248 13.4481 13.5195 12.973 13.8482 12.776L19.8544 9.17725Z" fill="#0A54FF"/>
<path d="M11.0456 14.5067C11.3806 14.3059 11.8063 14.5458 11.8042 14.934L11.7662 21.8943C11.7641 22.2752 11.3501 22.5142 11.0171 22.3267L5.04887 18.9651C4.71591 18.7775 4.71063 18.3024 5.03932 18.1054L11.0456 14.5067Z" fill="#0A54FF"/>
<path d="M28.5346 14.1426C28.8696 13.9419 29.2954 14.1818 29.2932 14.5699L29.2552 21.5303C29.2532 21.9112 28.8391 22.1502 28.5061 21.9626L22.5379 18.601C22.2049 18.4135 22.1996 17.9383 22.5283 17.7414L28.5346 14.1426Z" fill="#0A54FF"/>
<path d="M19.7258 19.472C20.0607 19.2713 20.4865 19.5112 20.4844 19.8994L20.4464 26.8597C20.4443 27.2406 20.0303 27.4796 19.6973 27.292L13.729 23.9305C13.3961 23.7429 13.3908 23.2678 13.7195 23.0708L19.7258 19.472Z" fill="#0A54FF"/>
<path d="M28.4059 24.4374C28.7409 24.2367 29.1667 24.4766 29.1646 24.8647L29.1266 31.8251C29.1245 32.206 28.7104 32.445 28.3775 32.2574L22.4092 28.8958C22.0763 28.7083 22.071 28.2331 22.3997 28.0362L28.4059 24.4374Z" fill="#0A54FF"/>
<path d="M16.0892 37.6475C15.7542 37.8482 15.3284 37.6083 15.3305 37.2202L15.3685 30.2598C15.3706 29.8789 15.7847 29.6399 16.1176 29.8275L22.0859 33.1891C22.4189 33.3766 22.4241 33.8518 22.0954 34.0487L16.0892 37.6475Z" fill="#00D689"/>
<path d="M7.40902 32.6821C7.07403 32.8828 6.64825 32.643 6.65036 32.2548L6.68836 25.2945C6.69044 24.9136 7.10451 24.6746 7.43747 24.8621L13.4057 28.2237C13.7387 28.4113 13.744 28.8864 13.4153 29.0834L7.40902 32.6821Z" fill="#00D689"/>
<path d="M60.315 18.7343H49.971V22.5263H55.371C55.011 24.0143 53.211 25.0223 51.363 25.0223C48.339 25.0223 46.299 22.5743 46.299 19.5503C46.299 16.3823 48.507 14.1743 51.315 14.1743C53.955 14.1743 55.131 15.9983 55.371 17.0303L59.955 15.8063C59.235 13.2623 56.643 9.90235 51.363 9.90235C45.891 9.90235 41.523 14.3423 41.523 19.5983C41.523 25.1903 45.747 29.2943 51.363 29.2943C56.787 29.2943 60.315 25.4303 60.315 20.5583V18.7343ZM71.6074 16.1663C71.2954 16.0943 70.8874 16.0703 70.7674 16.0703C69.9994 16.0703 68.1994 16.3103 67.1674 18.0383H67.1434V16.1903H62.6074V29.0063H67.1914V23.7263C67.1914 21.3263 68.5834 20.4863 70.4794 20.4863C70.5514 20.4863 71.1034 20.4863 71.6074 20.5823V16.1663ZM78.6692 19.3823C79.8212 19.3823 80.3732 20.0063 80.3732 20.6543C80.3732 21.1343 80.0372 21.4463 79.4612 21.4463H78.7892C76.0532 21.4463 72.7172 22.3583 72.7172 25.4783C72.7172 27.6383 74.4692 29.2463 76.6052 29.2463C78.1412 29.2463 79.4132 28.7423 80.4932 27.4943L80.5412 27.5183V29.0063H84.8852V21.1823C84.8852 17.6303 82.1972 15.9023 78.8372 15.9023C76.3892 15.9023 73.4612 17.0303 72.9572 19.9583L76.7732 20.7983C76.9412 19.9583 77.7332 19.3823 78.6692 19.3823ZM78.4292 26.0783C77.8292 26.0783 77.2772 25.6223 77.2772 24.9983C77.2772 24.1823 78.0932 23.8943 78.7892 23.8943H80.3732V24.2783C80.3732 25.4303 79.5332 26.0783 78.4292 26.0783ZM95.9644 29.2703C99.6604 29.2703 102.036 25.9583 102.036 22.5983C102.036 19.0703 99.5884 15.9503 96.0364 15.9503C94.6444 15.9503 93.2284 16.5743 92.3644 17.7263H92.2684V16.1903H87.7324V35.3423H92.3164V27.4943H92.3884C93.2764 28.6703 94.5004 29.2703 95.9644 29.2703ZM92.2684 22.5743C92.2684 21.1583 93.3964 19.9823 94.8124 19.9823C96.2524 19.9823 97.3804 21.1583 97.3804 22.5743C97.3804 23.9903 96.2524 25.1903 94.8124 25.1903C93.3964 25.1903 92.2684 23.9903 92.2684 22.5743ZM113.35 16.1663C113.038 16.0943 112.63 16.0703 112.51 16.0703C111.742 16.0703 109.942 16.3103 108.91 18.0383H108.886V16.1903H104.35V29.0063H108.934V23.7263C108.934 21.3263 110.326 20.4863 112.222 20.4863C112.294 20.4863 112.846 20.4863 113.35 20.5823V16.1663Z" fill="black"/>
</svg>
