<?xml version="1.0" standalone="no"?>
<!DOCTYPE svg PUBLIC "-//W3C//DTD SVG 20010904//EN"
 "http://www.w3.org/TR/2001/REC-SVG-20010904/DTD/svg10.dtd">
<svg version="1.0" xmlns="http://www.w3.org/2000/svg"
 width="512.000000pt" height="512.000000pt" viewBox="0 0 512.000000 512.000000"
 preserveAspectRatio="xMidYMid meet">
<metadata>
Created by potrace 1.11, written by Peter Selinger 2001-2013
</metadata>
<g transform="translate(0.000000,512.000000) scale(0.100000,-0.100000)"
fill="#000000" stroke="none">
<path d="M3679 4632 c-8 -4 -192 -113 -408 -242 -409 -245 -417 -252 -394
-303 13 -29 789 -467 827 -467 16 0 31 9 42 25 14 21 16 80 18 486 2 406 0
464 -13 479 -19 22 -50 31 -72 22z"/>
<path d="M2555 3950 c-11 -4 -130 -74 -265 -155 -135 -82 -254 -153 -265 -159
-129 -72 -269 -164 -278 -183 -20 -45 2 -65 194 -173 101 -58 200 -113 219
-123 19 -11 49 -27 65 -37 17 -10 55 -32 85 -48 30 -17 99 -55 153 -85 87 -49
102 -54 127 -45 16 5 32 17 35 26 13 31 14 927 2 952 -14 28 -45 40 -72 30z"/>
<path d="M3659 3312 c-8 -4 -191 -112 -406 -241 -277 -166 -393 -241 -397
-256 -13 -53 -1 -62 334 -248 25 -14 141 -79 259 -146 118 -67 222 -121 232
-121 9 0 27 8 40 19 l23 18 4 471 3 470 -22 21 c-23 21 -42 25 -70 13z"/>
<path d="M1110 3081 c-173 -104 -354 -213 -402 -242 -49 -29 -89 -58 -89 -66
-1 -7 -2 -19 -3 -25 -5 -33 6 -43 154 -125 101 -56 529 -298 584 -330 66 -38
109 -44 134 -19 15 15 17 61 20 487 3 434 2 472 -14 490 -9 10 -29 19 -43 19
-16 0 -148 -74 -341 -189z"/>
<path d="M2143 2400 c-230 -138 -403 -248 -410 -261 -17 -32 1 -71 45 -95 20
-11 69 -38 107 -59 39 -21 140 -78 225 -127 85 -49 167 -94 182 -101 16 -6 28
-15 28 -19 0 -5 5 -8 11 -8 6 0 49 -23 97 -51 96 -57 137 -67 167 -44 19 15
20 30 23 488 3 377 0 475 -10 489 -33 44 -48 37 -465 -212z"/>
<path d="M3505 1915 c-77 -46 -149 -90 -160 -97 -11 -8 -107 -65 -212 -128
-106 -63 -212 -127 -235 -141 -24 -14 -48 -36 -55 -49 -21 -42 2 -65 146 -147
75 -42 204 -114 286 -161 83 -46 170 -96 195 -110 50 -29 121 -68 162 -89 16
-8 37 -11 48 -8 49 16 49 19 51 513 1 428 -1 465 -17 483 -9 10 -29 19 -43 18
-14 0 -89 -38 -166 -84z"/>
<path d="M880 1930 l-23 -17 -4 -468 c-3 -516 -4 -515 55 -515 19 0 151 73
396 220 203 121 370 220 373 220 2 0 11 6 19 13 60 49 67 69 37 105 -16 18
-116 78 -283 170 -25 13 -79 43 -120 67 -279 159 -382 215 -403 219 -13 2 -34
-4 -47 -14z"/>
<path d="M1986 1291 c-18 -20 -19 -46 -21 -488 l-2 -467 23 -23 c13 -13 30
-23 39 -23 19 0 777 451 813 483 24 23 29 55 10 78 -12 15 -221 139 -233 139
-3 0 -22 11 -43 24 -21 13 -94 55 -162 93 -166 93 -203 114 -280 158 -83 47
-119 54 -144 26z"/>
</g>
</svg>
